<svg width="3995" height="2264" xmlns="http://www.w3.org/2000/svg" xmlns:xlink="http://www.w3.org/1999/xlink" xml:space="preserve" overflow="hidden"><defs><clipPath id="clip0"><rect x="248" y="117" width="3995" height="2264"/></clipPath></defs><g clip-path="url(#clip0)" transform="translate(-248 -117)"><rect x="252.5" y="121.5" width="3986" height="2255" stroke="#83888E" stroke-width="9.16667" stroke-miterlimit="8" fill="#83888E"/><path d="M798 1669 1495 708 2192 1669Z" stroke="#FFFFFF" stroke-width="10.3125" stroke-miterlimit="8" stroke-dasharray="41.25 30.9375" fill="#44546A" fill-rule="evenodd"/><path d="M0 0 2872 0.000360892" stroke="#A6A6A6" stroke-width="4.58333" stroke-miterlimit="8" fill="none" fill-rule="evenodd" transform="matrix(-1 0 0 1 3631.5 1025.5)"/><path d="M0 0 2872 0.000360892" stroke="#A6A6A6" stroke-width="4.58333" stroke-miterlimit="8" fill="none" fill-rule="evenodd" transform="matrix(-1 0 0 1 3631.5 596.5)"/><path d="M0 0 2872 0.000360892" stroke="#A6A6A6" stroke-width="4.58333" stroke-miterlimit="8" fill="none" fill-rule="evenodd" transform="matrix(-1 0 0 1 3631.5 1454.5)"/><path d="M0 0 2872 0.000360892" stroke="#A6A6A6" stroke-width="4.58333" stroke-miterlimit="8" fill="none" fill-rule="evenodd" transform="matrix(-1 0 0 1 3631.5 1883.5)"/><path d="M2096.5 596.5C2096.5 539.062 2143.06 492.5 2200.5 492.5 2257.94 492.5 2304.5 539.062 2304.5 596.5 2304.5 653.938 2257.94 700.5 2200.5 700.5 2143.06 700.5 2096.5 653.938 2096.5 596.5Z" stroke="#000000" stroke-width="9.16667" stroke-miterlimit="8" fill="#479DFF" fill-rule="evenodd"/><text font-family="Calibri,Calibri_MSFontService,sans-serif" font-weight="400" font-size="73" transform="matrix(1 0 0 1 2178.91 621)">A</text><path d="M1034.5 1456C1034.5 1398.84 1081.06 1352.5 1138.5 1352.5 1195.94 1352.5 1242.5 1398.84 1242.5 1456 1242.5 1513.16 1195.94 1559.5 1138.5 1559.5 1081.06 1559.5 1034.5 1513.16 1034.5 1456Z" stroke="#000000" stroke-width="9.16667" stroke-miterlimit="8" fill="#FF1F1F" fill-rule="evenodd"/><text font-family="Calibri,Calibri_MSFontService,sans-serif" font-weight="400" font-size="73" transform="matrix(1 0 0 1 1119.7 1481)">E</text><path d="M1391.5 1456C1391.5 1398.84 1438.06 1352.5 1495.5 1352.5 1552.94 1352.5 1599.5 1398.84 1599.5 1456 1599.5 1513.16 1552.94 1559.5 1495.5 1559.5 1438.06 1559.5 1391.5 1513.16 1391.5 1456Z" stroke="#000000" stroke-width="9.16667" stroke-miterlimit="8" fill="#FF1F1F" fill-rule="evenodd"/><text font-family="Calibri,Calibri_MSFontService,sans-serif" font-weight="400" font-size="73" transform="matrix(1 0 0 1 1477.87 1481)">F</text><path d="M1748.5 1456C1748.5 1398.84 1795.06 1352.5 1852.5 1352.5 1909.94 1352.5 1956.5 1398.84 1956.5 1456 1956.5 1513.16 1909.94 1559.5 1852.5 1559.5 1795.06 1559.5 1748.5 1513.16 1748.5 1456Z" stroke="#000000" stroke-width="9.16667" stroke-miterlimit="8" fill="#FF1F1F" fill-rule="evenodd"/><text font-family="Calibri,Calibri_MSFontService,sans-serif" font-weight="400" font-size="73" transform="matrix(1 0 0 1 1828.52 1481)">G</text><path d="M3158.5 1888C3158.5 1830.84 3205.06 1784.5 3262.5 1784.5 3319.94 1784.5 3366.5 1830.84 3366.5 1888 3366.5 1945.16 3319.94 1991.5 3262.5 1991.5 3205.06 1991.5 3158.5 1945.16 3158.5 1888Z" stroke="#000000" stroke-width="9.16667" stroke-miterlimit="8" fill="#FF4775" fill-rule="evenodd"/><text font-family="Calibri,Calibri_MSFontService,sans-serif" font-weight="400" font-size="73" transform="matrix(1 0 0 1 3250.21 1912)">J</text><path d="M0 0 559 283" stroke="#000000" stroke-width="4.58333" stroke-miterlimit="8" fill="none" fill-rule="evenodd" transform="matrix(-1 0 0 1 2127.5 670.5)"/><path d="M2273.5 670.5 2832.5 953.5" stroke="#000000" stroke-width="4.58333" stroke-miterlimit="8" fill="none" fill-rule="evenodd"/><path d="M0 0 0.999672 226" stroke="#000000" stroke-width="4.58333" stroke-miterlimit="8" fill="none" fill-rule="evenodd" transform="matrix(-1 0 0 1 3263.5 1558.5)"/><path d="M0 0 210 282" stroke="#000000" stroke-width="4.58333" stroke-miterlimit="8" fill="none" fill-rule="evenodd" transform="matrix(-1 0 0 1 1421.5 1100.5)"/><path d="M1495.5 1130.5 1495.5 1352.5" stroke="#000000" stroke-width="4.58333" stroke-miterlimit="8" fill="none" fill-rule="evenodd"/><path d="M1568.5 1100.5 1778.5 1382.5" stroke="#000000" stroke-width="4.58333" stroke-miterlimit="8" fill="none" fill-rule="evenodd"/><path d="M2444.5 1454.5C2444.5 1397.06 2491.06 1350.5 2548.5 1350.5 2605.94 1350.5 2652.5 1397.06 2652.5 1454.5 2652.5 1511.94 2605.94 1558.5 2548.5 1558.5 2491.06 1558.5 2444.5 1511.94 2444.5 1454.5Z" stroke="#000000" stroke-width="9.16667" stroke-miterlimit="8" fill="#97FE71" fill-rule="evenodd"/><text font-family="Calibri,Calibri_MSFontService,sans-serif" font-weight="400" font-size="73" transform="matrix(1 0 0 1 2525.38 1479)">H</text><path d="M3159.5 1454.5C3159.5 1397.06 3205.84 1350.5 3263 1350.5 3320.16 1350.5 3366.5 1397.06 3366.5 1454.5 3366.5 1511.94 3320.16 1558.5 3263 1558.5 3205.84 1558.5 3159.5 1511.94 3159.5 1454.5Z" stroke="#000000" stroke-width="9.16667" stroke-miterlimit="8" fill="#97FE71" fill-rule="evenodd"/><text font-family="Calibri,Calibri_MSFontService,sans-serif" font-weight="400" font-size="73" transform="matrix(1 0 0 1 3253.24 1479)">I</text><path d="M2979.5 1100.5 3189.5 1381.5" stroke="#000000" stroke-width="4.58333" stroke-miterlimit="8" fill="none" fill-rule="evenodd"/><path d="M0 0 210 281" stroke="#000000" stroke-width="4.58333" stroke-miterlimit="8" fill="none" fill-rule="evenodd" transform="matrix(-1 0 0 1 2832.5 1100.5)"/><text fill="#FFFFFF" font-family="Calibri,Calibri_MSFontService,sans-serif" font-weight="400" font-size="55" transform="matrix(1 0 0 1 3673.39 614)">Level 0<tspan font-size="55" x="0" y="430">Level 1</tspan><tspan font-size="55" x="0" y="859">Level 2</tspan><tspan font-size="55" x="0" y="1287">Level 3</tspan></text><path d="M2.27362-0.00508472 2.31429 18.1838-2.23294 18.194-2.27362 0.00508472ZM2.3448 31.8255 2.38548 50.0145-2.16175 50.0246-2.20243 31.8357ZM2.41599 63.6562 2.45667 81.8451-2.09057 81.8553-2.13124 63.6663ZM2.48717 95.4868 2.52785 113.676-2.01938 113.686-2.06006 95.497ZM2.55836 127.317 2.59904 145.506-1.94819 145.517-1.98887 127.328ZM2.62955 159.148 2.67022 177.337-1.87701 177.347-1.91769 159.158ZM2.70073 190.979 2.74141 209.168-1.80582 209.178-1.8465 190.989ZM2.77192 222.809 2.8126 240.998-1.73464 241.008-1.77531 222.819ZM2.84311 254.64 2.88378 272.829-1.66345 272.839-1.70413 254.65ZM2.91429 286.471 2.95497 304.659-1.59226 304.67-1.63294 286.481ZM2.98548 318.301 3.02616 336.49-1.52108 336.5-1.56176 318.311ZM3.05666 350.132 3.09734 368.321-1.44989 368.331-1.49057 350.142ZM3.12785 381.962 3.16853 400.151-1.37871 400.162-1.41938 381.973ZM3.19904 413.793 3.22204 424.078-1.3252 424.088-1.3482 413.803ZM14.6881 419.469 0.999672 447-12.8118 419.531Z" fill="#FFFFFF" transform="matrix(1 0 0 -1 1495.5 2145.5)"/><text fill="#FFFFFF" font-family="Calibri,Calibri_MSFontService,sans-serif" font-weight="400" font-size="55" transform="matrix(1 0 0 1 1390.94 2217)">Sub<tspan font-size="55" x="82.3626" y="0">-</tspan><tspan font-size="55" x="98.9313" y="0">tree</tspan><tspan font-size="55" x="-949.058" y="-744">Child Node</tspan><tspan font-size="55" x="-985.867" y="-1173">Parent Node</tspan></text><path d="M2.27362-0.00407472 2.30622 18.1849-2.24102 18.193-2.27362 0.00407472ZM2.33066 31.8266 2.36326 50.0155-2.18397 50.0237-2.21657 31.8347ZM2.38771 63.6572 2.42031 81.8462-2.12693 81.8543-2.15953 63.6654ZM2.44476 95.4879 2.47735 113.677-2.06988 113.685-2.10248 95.496ZM2.5018 127.319 2.5344 145.508-2.01284 145.516-2.04543 127.327ZM2.55885 159.149 2.59145 177.338-1.95579 177.346-1.98839 159.157ZM2.61589 190.98 2.64849 209.169-1.89874 209.177-1.93134 190.988ZM2.67294 222.811 2.70554 240.999-1.8417 241.008-1.8743 222.819ZM2.72999 254.641 2.76258 272.83-1.78465 272.838-1.81725 254.649ZM2.78703 286.472 2.81963 304.661-1.72761 304.669-1.7602 286.48ZM2.84408 318.303 2.87668 336.491-1.67056 336.5-1.70316 318.311ZM2.90113 350.133 2.93372 368.322-1.61351 368.33-1.64611 350.141ZM2.95817 381.964 2.99077 400.153-1.55647 400.161-1.58907 381.972ZM3.01522 413.795 3.04782 431.983-1.49942 431.992-1.53202 413.803ZM3.07226 445.625 3.10486 463.814-1.44238 463.822-1.47497 445.633ZM3.12931 477.456 3.16191 495.645-1.38533 495.653-1.41793 477.464ZM3.18636 509.286 3.21895 527.475-1.32828 527.484-1.36088 509.295ZM14.7007 530.475 1.00003 558-12.7992 530.525Z" fill="#FFFFFF" transform="matrix(1 0 0 -1 2547.5 2116.5)"/><text fill="#FFFFFF" font-family="Calibri,Calibri_MSFontService,sans-serif" font-weight="400" font-size="55" transform="matrix(1 0 0 1 2437.32 2201)">Leaf Node</text><path d="M2675.42 1452.27 2693.61 1452.31 2693.6 1456.85 2675.41 1456.82ZM2707.25 1452.33 2725.44 1452.37 2725.43 1456.92 2707.24 1456.88ZM2739.08 1452.4 2757.27 1452.43 2757.26 1456.98 2739.07 1456.94ZM2770.91 1452.46 2789.1 1452.5 2789.09 1457.04 2770.9 1457.01ZM2802.74 1452.52 2820.93 1452.56 2820.92 1457.11 2802.73 1457.07ZM2834.57 1452.59 2852.76 1452.62 2852.75 1457.17 2834.57 1457.13ZM2866.4 1452.65 2884.59 1452.68 2884.58 1457.23 2866.4 1457.2ZM2898.24 1452.71 2916.42 1452.75 2916.42 1457.29 2898.23 1457.26ZM2930.07 1452.77 2948.26 1452.81 2948.25 1457.36 2930.06 1457.32ZM2961.9 1452.84 2980.09 1452.87 2980.08 1457.42 2961.89 1457.38ZM2993.73 1452.9 3011.92 1452.94 3011.91 1457.48 2993.72 1457.45ZM3025.56 1452.96 3043.75 1453 3043.74 1457.55 3025.55 1457.51ZM3057.39 1453.03 3075.58 1453.06 3075.57 1457.61 3057.38 1457.57ZM3089.22 1453.09 3107.41 1453.12 3107.4 1457.67 3089.21 1457.64ZM3121.05 1453.15 3135.59 1453.18 3135.58 1457.73 3121.04 1457.7ZM2679.97 1468.3 2652.5 1454.5 2680.03 1440.8ZM3131.03 1441.7 3158.5 1455.5 3130.97 1469.2Z" fill="#FFFFFF"/><rect x="2786" y="1404" width="238" height="100" fill="#83888E"/><text fill="#FFFFFF" font-family="Calibri,Calibri_MSFontService,sans-serif" font-weight="400" font-size="55" transform="matrix(1 0 0 1 2821.49 1473)">Siblings</text><path d="M720.008 1020.84 761.258 1020.91 761.242 1031.22 719.992 1031.16ZM792.195 1020.95 833.445 1021.01 833.43 1031.33 792.18 1031.26ZM864.383 1021.06 905.633 1021.12 905.617 1031.43 864.367 1031.37ZM936.57 1021.17 977.82 1021.23 977.805 1031.54 936.555 1031.48ZM1008.76 1021.27 1050.01 1021.34 1049.99 1031.65 1008.74 1031.59ZM1080.94 1021.38 1122.19 1021.44 1122.18 1031.76 1080.93 1031.69ZM1153.13 1021.49 1194.38 1021.55 1194.37 1031.86 1153.12 1031.8ZM1225.32 1021.6 1266.57 1021.66 1266.55 1031.97 1225.3 1031.91ZM1297.51 1021.7 1338.76 1021.77 1338.74 1032.08 1297.49 1032.02ZM1360.09 1011.48 1391 1027 1360.04 1042.42Z" fill="#FFFFFF"/><path d="M720.033 1448.84 761.282 1449.11 761.216 1459.42 719.967 1459.16ZM792.219 1449.3 833.468 1449.57 833.403 1459.88 792.153 1459.62ZM864.405 1449.76 905.654 1450.03 905.589 1460.34 864.339 1460.08ZM936.591 1450.22 977.84 1450.49 977.775 1460.8 936.525 1460.54ZM1003.16 1440.33 1034 1456 1002.96 1471.27Z" fill="#FFFFFF"/><text fill="#FFFFFF" font-family="Calibri,Calibri_MSFontService,sans-serif" font-weight="400" font-size="55" transform="matrix(1 0 0 1 2071.07 346)">Root Node</text><path d="M2202.77 378.48 2202.93 396.668 2198.39 396.708 2198.23 378.52ZM2203.05 410.31 2203.21 428.498 2198.66 428.538 2198.51 410.349ZM2203.33 442.139 2203.49 460.327 2198.94 460.367 2198.78 442.179ZM2215.01 464.881 2201.5 492.5 2187.51 465.122Z" fill="#FFFFFF"/><text fill="#FFFFFF" font-family="Calibri,Calibri_MSFontService,sans-serif" font-weight="400" font-size="55" transform="matrix(1 0 0 1 2526.06 411)">Edge</text><path d="M2578.77 461.493 2578.83 479.682 2574.28 479.696 2574.23 461.507ZM2578.87 493.324 2578.92 511.513 2574.37 511.526 2574.32 493.337ZM2578.96 525.155 2579.02 543.343 2574.47 543.357 2574.41 525.168ZM2579.06 556.985 2579.11 575.174 2574.56 575.188 2574.51 556.999ZM2579.15 588.816 2579.2 607.005 2574.66 607.018 2574.6 588.829ZM2579.24 620.646 2579.3 638.835 2574.75 638.849 2574.7 620.66ZM2579.34 652.477 2579.39 670.666 2574.84 670.679 2574.79 652.49ZM2579.43 684.307 2579.49 702.496 2574.94 702.51 2574.89 684.321ZM2579.53 716.138 2579.58 734.327 2575.03 734.34 2574.98 716.151ZM2579.62 747.969 2579.67 766.157 2575.13 766.171 2575.07 747.982ZM2591.17 771.959 2577.5 799.5 2563.67 772.041Z" fill="#FFFFFF"/><path d="M2801.5 1027C2801.5 969.839 2848.06 923.5 2905.5 923.5 2962.94 923.5 3009.5 969.839 3009.5 1027 3009.5 1084.16 2962.94 1130.5 2905.5 1130.5 2848.06 1130.5 2801.5 1084.16 2801.5 1027Z" stroke="#000000" stroke-width="9.16667" stroke-miterlimit="8" fill="#E0D900" fill-rule="evenodd"/><text font-family="Calibri,Calibri_MSFontService,sans-serif" font-weight="400" font-size="73" transform="matrix(1 0 0 1 2885.84 1051)">C</text><path d="M1391.5 1027C1391.5 969.839 1438.06 923.5 1495.5 923.5 1552.94 923.5 1599.5 969.839 1599.5 1027 1599.5 1084.16 1552.94 1130.5 1495.5 1130.5 1438.06 1130.5 1391.5 1084.16 1391.5 1027Z" stroke="#000000" stroke-width="9.16667" stroke-miterlimit="8" fill="#E0D900" fill-rule="evenodd"/><text font-family="Calibri,Calibri_MSFontService,sans-serif" font-weight="400" font-size="73" transform="matrix(1 0 0 1 1474.71 1051)">B</text></g></svg>